<?xml version="1.0" encoding="UTF-8"?>
<!--
Original content & materials: zerc20.io (all rights reserved by respective owner)
This page is an unofficial Japanese translation / adaptation by awe-lab
Source/Reference: https://zerc20.io
-->

<svg id="zMark" data-name="zMark" xmlns="http://www.w3.org/2000/svg" version="1.1" viewBox="0 0 180 180">

<defs>
<linearGradient id="zGradient" x1="0%" y1="0%" x2="100%" y2="100%">

<stop offset="0%" stop-color="#35cc88">
<animate attributeName="stop-color" values="#35cc88;#4ee3a0;#24b978;#35cc88" dur="4s" repeatCount="indefinite"/>
</stop>

<stop offset="50%" stop-color="#63e8ae">
<animate attributeName="stop-color" values="#63e8ae;#46d795;#8cf0c6;#63e8ae" dur="4s" repeatCount="indefinite"/>
</stop>

<stop offset="100%" stop-color="#1b8f5a">
<animate attributeName="stop-color" values="#1b8f5a;#2aa56a;#157949;#1b8f5a" dur="4s" repeatCount="indefinite"/>
</stop>

<animateTransform
attributeName="gradientTransform"
type="rotate"
values="0 90 90;360 90 90"
dur="16s"
repeatCount="indefinite"
/>
</linearGradient>
</defs>

<path d="M163,116.77c-.66-2.15-1.8-2.85-3.85-2.41-1.93.4-3.94-.7-5.61-.79-5.12-.26-9.9-.13-15.02-.09-.83,0-1.8-.53-2.1-1.32,1.36-.44,2.54-.17,3.9-.17h9.22l-1.76-1h-45.71l1.62-3h-15.9l11.51-3h46.28s1.77-1.93,2.22-2.64l-8.25-.31-6.56-.4c3.33-1.95,7.85-4.65,7.85-4.65l-19.49-.09.96-3.11,4.47-1.31c1.75-.53,3.2-.4,4.42-1.97,1.71-2.19,4.29-1.57,7.57-5.47.88-1.88,1.8-3.2,3.55-4.42,3.07-2.1,5.69-4.42,8.23-7.05l3.9-4.07c.48-.52.57-1.4.22-2.02l-.48-.79,2.76-.48,1.57-.26c.26-.05.18-1.18,0-1.45-.79-1.36-3.15-2.06-5.08-1.66l-.31-4.51-2.76-.44c-.53-1.62,1.31-1.8,2.45-2.32,1.71-.79,2.89-1.31,5.04-1.05.53.05,1.75-.52,1.62-1.01-.61-1.88-3.46-1.18-3.07-2.23l.75-1.92.31-5.69c2.98-3.81-3.11-6.61.83-6.66l7.42-.1c.35-1.8.3-3.4-.25-4.9h-6.55s-4.33.18-5.84-.36c-1.43-2.18-5.54-2.64-5.54-2.64H41.63l-4.58,3,11.52.14c-.05,1.82-.23,3.45-.68,4.86l-8.09.13c-.66,0-.31,1.67.17,2.06,1.4,1.14.48,2.98.09,4.52-.48,1.75.13,4.17-.44,5.75l-.66,1.8c-.44,1.18,2.28.92,2.55,1.36.17.31.17,1.32,0,1.67-.35.84-1.4-.75-6.23,1.32-1.32.57-2.76.88-2.68,2.41.79,0,2.55.09,2.76.62.39.92.48,2.94.57,4.26,2.68-.35,5.44.35,6.28,3.25l-3.77.48c1.05,1.27,6.19,2.33,8.43,2.37h40.68s-3.97,4.19-3.97,4.19c-2.59,2.68-5.35,5.13-8.39,7.23-5.22,3.61-3.61,5.98-8.3,8.21-6.87,3.3-1.74,2.54-8.39,4.42l-3.75,1.07c-.31.09-1.16,0-1.16.27l-.09,1.25-.94,1.38.62.54,1.12.45,3.17-.45.89.45,10.71-.45.89.45h.84l1.54-.4c.2,0,.1.2.15.84-4.5,4.75-5.2,2.52-6.68,3.07l-1.34.5c-.25.1.2.69.4.84.1,0,.89-.35.89-.35l2.48.5.99-.5.99.5.99-.5,7.97.5h-.05l.29-.11-2.18,1.6c-.08.04-.91-.5-.91-.5H31.56l-11.42,2-.89.71c-.18.13-.13.84.09.84l1.42.44h8.49l.8,1h.84l4.25-.82c-1.07,1.77-3.69,2.82-3.69,2.82l-15.12.09c-1.86,1.86,10.73.09,15.64,1.45,6.09,1.68,6.86.14,7.23,1.64.23.82.5,1.59.77,1.82h12.15l.15,4.25c0,.3-1.2.75-1.5.75h-9.01c-.45-.04-1.96.18-2.01.63l-.22,3.35c0,.27-.58.89-.89.89l-2.86.13-.54,2.14c-.13.49-3.26.09-5.63.09-1.03,0-1.61,1.79-1.29,2.72.22.71,1.56,1.07,2.63,1.56l.18,3.62,1.2.8c.18.09.45.63.27.67-.18.09-1.07.4-1.29.4H5.3c-.17,0-.61-.05-1.13-.09s-1.56.96-1.17,1.48l1.09,1.39c.83,1.04-.48,4.22.91,4.22l30.78.08c.37,1.46.57,3.54,1.83,3.86,2.32.57,3.01-.16,5.16.49.16.04-.2.57-.37.57h-2.21s-1.28.56-1.15.69c.26.31.58.31.58.31h129.24s-1.72-.82-1.72-2.53-1.57-2.47-1.57-2.47h-4.63l-1.76-1h-30.09s-.35-4.03-.35-4.03c-.83-.65-1.7-1.8-1-2.97l29.89-.09c-.71-.94-1.12-1.21-1.56-1.56-.94-.76.18-2.91-.71-4.02-1.3-.23-2.32-.67-2.6-1.39-.27-.62.09-2.6.85-2.6l6.49-.23-.09-1.56c0-.4,1.12-.62,1.56-.67l2.5-.23.27-4.65h12.09s.68-2,.68-2h-11.46l-2.65-2.23h.02Z" fill="url(#zGradient)"/>
</svg>